<svg width="619" height="383" viewBox="0 0 619 383" fill="none" xmlns="http://www.w3.org/2000/svg">
<g clip-path="url(#clip0)">
<path d="M169.007 313.249C185.812 313.249 199.435 296.335 199.435 275.471C199.435 254.607 185.812 237.694 169.007 237.694C152.203 237.694 138.58 254.607 138.58 275.471C138.58 296.335 152.203 313.249 169.007 313.249Z" fill="#E4E4E4"/>
<path opacity="0.2" d="M146.541 250.239C143.703 258.482 143.318 267.709 145.455 276.272C147.592 284.835 152.111 292.175 158.206 296.981C164.301 301.788 171.573 303.747 178.724 302.508C185.875 301.27 192.439 296.915 197.242 290.222C195.508 295.258 192.913 299.765 189.637 303.433C186.36 307.1 182.481 309.839 178.268 311.46C174.054 313.081 169.607 313.546 165.235 312.821C160.862 312.096 156.669 310.2 152.946 307.264C149.222 304.327 146.057 300.421 143.67 295.815C141.284 291.209 139.732 286.014 139.123 280.59C138.513 275.166 138.861 269.642 140.142 264.401C141.423 259.16 143.606 254.328 146.541 250.239Z" fill="black"/>
<path d="M169.091 275.472H169.174L170.679 382.577H167.502L169.091 275.472Z" fill="#3F3D56"/>
<path d="M107.444 242.799C141.325 242.799 168.791 208.698 168.791 166.632C168.791 124.567 141.325 90.4658 107.444 90.4658C73.5634 90.4658 46.0975 124.567 46.0975 166.632C46.0975 208.698 73.5634 242.799 107.444 242.799Z" fill="#E4E4E4"/>
<path opacity="0.2" d="M62.1479 115.759C56.4256 132.378 55.6494 150.982 59.9578 168.246C64.2663 185.51 73.3787 200.31 85.6668 210C97.9548 219.691 112.618 223.64 127.035 221.144C141.453 218.647 154.686 209.867 164.37 196.372C160.874 206.525 155.642 215.614 149.037 223.008C142.431 230.402 134.61 235.924 126.115 239.192C117.62 242.461 108.654 243.397 99.8381 241.936C91.0226 240.475 82.5683 236.652 75.061 230.732C67.5536 224.811 61.1728 216.935 56.3604 207.649C51.5481 198.363 48.4194 187.889 47.1911 176.953C45.9628 166.016 46.6642 154.879 49.2468 144.313C51.8294 133.746 56.2315 124.004 62.1479 115.759Z" fill="black"/>
<path d="M107.613 166.632H107.782L110.815 382.577H104.411L107.613 166.632Z" fill="#3F3D56"/>
<path d="M511.904 270.805H230.718V374.298H511.904V270.805Z" fill="#F0F0F0"/>
<path d="M387.705 292.194H354.918V374.298H387.705V292.194Z" fill="#CACACA"/>
<path d="M495.511 148.684H247.111V243.897H495.511V148.684Z" fill="#F0F0F0"/>
<path d="M520.695 154.549H221.928C221.429 154.549 220.942 154.364 220.529 154.017C220.115 153.67 219.795 153.178 219.608 152.604C219.422 152.029 219.378 151.399 219.483 150.793C219.588 150.188 219.836 149.635 220.195 149.206L301.848 51.7597V9.31433C301.849 8.49118 302.113 7.70201 302.582 7.11995C303.05 6.53789 303.686 6.21049 304.349 6.20956H320.464C321.127 6.21046 321.763 6.53786 322.232 7.11993C322.701 7.70199 322.964 8.49117 322.965 9.31433V26.559L329.133 19.1987C339.225 7.15414 352.615 0.2985 366.612 0.00952025C380.609 -0.279459 394.175 6.01963 404.584 17.6409L522.367 149.135C522.743 149.555 523.008 150.107 523.126 150.717C523.244 151.328 523.211 151.969 523.03 152.555C522.848 153.142 522.528 153.646 522.111 154.002C521.695 154.358 521.201 154.549 520.695 154.549V154.549Z" fill="#CACACA"/>
<path d="M312.684 172.832C314.764 172.832 316.824 173.341 318.745 174.329C320.667 175.317 322.413 176.766 323.883 178.592C325.354 180.418 326.521 182.585 327.316 184.971C328.112 187.357 328.522 189.914 328.522 192.496V219.059H296.847V192.496C296.847 189.914 297.257 187.357 298.052 184.971C298.848 182.585 300.015 180.418 301.486 178.592C302.956 176.766 304.702 175.317 306.624 174.329C308.545 173.341 310.605 172.832 312.684 172.832Z" fill="white"/>
<path d="M371.311 173.177C375.512 173.177 379.54 175.249 382.51 178.937C385.48 182.624 387.149 187.626 387.149 192.841V219.404H355.474V192.841C355.474 187.626 357.142 182.624 360.112 178.937C363.083 175.249 367.111 173.177 371.311 173.177Z" fill="white"/>
<path d="M429.938 173.522C434.139 173.522 438.167 175.594 441.137 179.282C444.107 182.969 445.776 187.971 445.776 193.186V219.749H414.101V193.186C414.101 187.971 415.769 182.969 418.739 179.282C421.709 175.594 425.738 173.522 429.938 173.522Z" fill="white"/>
<path d="M453.278 291.159C457.478 291.159 461.507 293.231 464.477 296.918C467.447 300.606 469.115 305.607 469.115 310.822V337.386H437.44V310.822C437.44 305.607 439.109 300.606 442.079 296.918C445.049 293.231 449.077 291.159 453.278 291.159Z" fill="white"/>
<path d="M296.569 291.159C300.769 291.159 304.798 293.231 307.768 296.918C310.738 300.606 312.407 305.607 312.407 310.822V337.386H280.731V310.822C280.731 308.24 281.141 305.683 281.937 303.298C282.733 300.912 283.9 298.744 285.37 296.918C286.841 295.092 288.587 293.644 290.508 292.656C292.43 291.668 294.489 291.159 296.569 291.159Z" fill="white"/>
<path d="M552.985 272.421L500.237 243.443C499.954 243.288 499.648 243.207 499.338 243.207H247.953C247.666 243.207 247.381 243.276 247.115 243.411L189.7 272.388C189.222 272.629 188.827 273.069 188.582 273.632C188.337 274.195 188.257 274.846 188.356 275.475C188.454 276.103 188.726 276.669 189.124 277.076C189.522 277.482 190.021 277.705 190.537 277.705H205.434V372.918H203.766V382.577H538.856V372.918H536.078V277.705H552.085C552.595 277.705 553.089 277.487 553.485 277.089C553.881 276.69 554.155 276.135 554.26 275.516C554.365 274.897 554.296 274.251 554.064 273.688C553.832 273.125 553.451 272.677 552.985 272.421ZM531.632 372.918H209.879V277.705H531.632V372.918Z" fill="#CACACA"/>
<path d="M332.412 215.264H291.846V223.544H332.412V215.264Z" fill="#CACACA"/>
<path d="M391.872 215.264H351.306V223.544H391.872V215.264Z" fill="#CACACA"/>
<path d="M451.333 215.264H410.766V223.544H451.333V215.264Z" fill="#CACACA"/>
<path d="M473.561 334.626H432.995V342.905H473.561V334.626Z" fill="#CACACA"/>
<path d="M316.297 334.626H275.73V342.905H316.297V334.626Z" fill="#CACACA"/>
<path d="M618.319 383H0.680968C0.500364 383 0.327157 382.911 0.19945 382.752C0.0717441 382.594 0 382.379 0 382.155C0 381.93 0.0717441 381.715 0.19945 381.557C0.327157 381.398 0.500364 381.309 0.680968 381.309H618.319C618.5 381.309 618.673 381.398 618.801 381.557C618.928 381.715 619 381.93 619 382.155C619 382.379 618.928 382.594 618.801 382.752C618.673 382.911 618.5 383 618.319 383Z" fill="#3F3D56"/>
<path d="M462.967 147.265C462.967 147.806 462.961 148.355 462.954 148.897C462.947 149.548 462.933 150.19 462.913 150.841C462.893 151.408 462.872 151.966 462.845 152.524C462.763 154.392 462.634 156.252 462.457 158.121C462.416 158.594 462.368 159.059 462.314 159.533C462.273 159.896 462.232 160.268 462.184 160.64C462.137 161.054 462.089 161.469 462.034 161.883C461.925 162.762 461.803 163.642 461.667 164.521C461.599 164.961 461.531 165.4 461.456 165.84C461.313 166.711 461.156 167.59 460.993 168.461C460.979 168.528 460.965 168.605 460.952 168.672C460.87 169.103 460.788 169.526 460.7 169.957C460.673 170.084 460.652 170.203 460.618 170.329C460.557 170.651 460.489 170.972 460.421 171.293C460.325 171.741 460.23 172.181 460.128 172.629C459.964 173.322 459.801 174.007 459.631 174.7C459.609 174.772 459.591 174.846 459.576 174.92C459.249 176.231 458.902 177.524 458.521 178.809C458.323 179.486 458.112 180.171 457.901 180.847C457.69 181.523 457.472 182.2 457.247 182.868C457.029 183.519 456.805 184.17 456.58 184.812C456.525 184.964 456.471 185.117 456.41 185.269C456.171 185.937 455.926 186.588 455.674 187.239C455.667 187.247 455.667 187.264 455.661 187.273C455.463 187.797 455.252 188.321 455.041 188.837C455.041 188.852 455.036 188.867 455.027 188.879C454.823 189.386 454.612 189.894 454.394 190.392L454.047 191.212L454.006 191.306C453.57 192.312 453.121 193.309 452.644 194.299C452.542 194.518 452.44 194.738 452.338 194.949C452.235 195.169 452.126 195.389 452.017 195.6C451.949 195.753 451.875 195.905 451.793 196.057C451.65 196.345 451.507 196.64 451.357 196.928C451.33 196.987 451.296 197.046 451.268 197.105C451.01 197.604 450.751 198.095 450.492 198.593C450.172 199.194 449.845 199.786 449.512 200.377L442.116 215.072L441.796 214.742L441.708 214.641H441.701L441.408 214.336L440.604 213.491C440.359 213.787 440.121 214.083 439.876 214.37C439.78 214.488 439.678 214.598 439.583 214.717C439.508 214.801 439.44 214.886 439.365 214.97C426.58 230.472 409.573 239.449 391.711 240.123H391.691C378.169 240.584 364.784 236.662 352.855 228.743C352.589 228.574 352.331 228.405 352.072 228.21C350.519 227.162 349.001 226.054 347.509 224.871C347.502 224.862 347.496 224.862 347.489 224.854C345.759 223.332 344.07 221.708 342.422 219.984C333.582 210.731 326.587 199.062 321.988 185.891C317.388 172.72 315.309 158.405 315.912 144.069C315.933 143.502 315.96 142.944 315.994 142.378C316.103 140.332 316.271 138.294 316.498 136.265C316.559 135.698 316.627 135.132 316.695 134.574H462.273C462.559 137.161 462.756 139.762 462.865 142.378C462.933 144.01 462.967 145.633 462.967 147.265Z" fill="#F0F0F0"/>
<path d="M462.273 134.574C459.652 112.935 450.864 93.181 437.507 78.9043C424.149 64.6275 407.109 56.7755 389.484 56.7755C371.859 56.7755 354.819 64.6275 341.462 78.9043C328.104 93.181 319.316 112.935 316.695 134.574C316.627 135.132 316.559 135.699 316.498 136.265C316.273 138.294 316.105 140.332 315.994 142.378H462.865C462.756 139.765 462.559 137.164 462.273 134.574Z" fill="#FEBA9F"/>
<path d="M394.253 228.74H352.075V186.85C352.853 167.706 366.032 166.16 378.415 167.188C380.495 167.187 382.554 167.696 384.476 168.684C386.397 169.672 388.143 171.12 389.614 172.946C391.085 174.772 392.251 176.94 393.047 179.325C393.843 181.711 394.253 184.268 394.253 186.85V228.74Z" fill="#FEBA9F"/>
<path d="M352.072 198.957V198.966C352.072 198.974 352.079 198.974 352.085 198.974L352.072 198.957ZM335.109 134.574C335.082 134.786 335.047 134.997 335.02 135.208C335.047 134.997 335.082 134.786 335.116 134.574H335.109ZM334.264 142.378C334.244 142.699 334.224 143.021 334.21 143.342C334.224 143.021 334.244 142.699 334.271 142.378C334.27 142.319 334.272 142.259 334.278 142.2C334.271 142.26 334.271 142.319 334.264 142.378ZM352.072 198.966C352.072 198.974 352.079 198.974 352.085 198.974L352.072 198.957V198.966ZM335.109 134.574C335.082 134.786 335.047 134.997 335.02 135.208C335.047 134.997 335.082 134.786 335.116 134.574H335.109ZM334.21 143.342C334.224 143.021 334.244 142.699 334.271 142.378C334.27 142.319 334.272 142.259 334.278 142.2C334.271 142.26 334.271 142.319 334.264 142.378C334.244 142.699 334.224 143.021 334.21 143.342ZM544.588 298.875C544.456 298.701 544.315 298.537 544.166 298.385L544.159 298.376L510.438 263.044L509.566 262.131L506.25 258.656L505.419 257.785L500.693 252.831L499.399 251.478L496.723 248.671L495.354 247.234L482.443 233.714L475.041 225.962L474.047 224.922L452.235 202.068C452.569 201.477 452.896 200.885 453.216 200.284C453.475 199.786 453.733 199.295 453.992 198.796C454.019 198.737 454.053 198.678 454.081 198.619C454.231 198.331 454.374 198.036 454.516 197.748C454.598 197.596 454.673 197.444 454.741 197.292C454.85 197.08 454.959 196.86 455.061 196.641C455.164 196.429 455.266 196.209 455.368 195.99C455.845 195 456.294 194.003 456.73 192.997L456.771 192.903L457.118 192.083C457.336 191.585 457.547 191.077 457.751 190.57C457.76 190.558 457.765 190.543 457.765 190.528C457.976 190.012 458.187 189.488 458.385 188.964C458.391 188.955 458.391 188.938 458.398 188.93C458.65 188.279 458.895 187.628 459.134 186.96C459.195 186.808 459.249 186.656 459.304 186.503C459.528 185.861 459.753 185.21 459.971 184.559C460.196 183.891 460.414 183.214 460.625 182.538C460.836 181.862 461.047 181.177 461.245 180.5C461.619 179.207 461.971 177.91 462.3 176.611C462.315 176.537 462.333 176.463 462.355 176.391C462.525 175.698 462.688 175.013 462.852 174.32C462.954 173.872 463.049 173.432 463.144 172.984C463.212 172.663 463.281 172.342 463.342 172.02C463.376 171.894 463.396 171.775 463.424 171.648C463.512 171.217 463.594 170.794 463.676 170.363C463.689 170.296 463.703 170.22 463.717 170.152C463.88 169.281 464.037 168.402 464.18 167.531C464.255 167.091 464.323 166.652 464.391 166.212C464.52 165.333 464.649 164.453 464.758 163.574C464.813 163.16 464.86 162.746 464.908 162.331C464.956 161.959 464.997 161.587 465.038 161.224C465.092 160.75 465.14 160.285 465.181 159.812C465.358 157.943 465.487 156.083 465.569 154.215C465.596 153.657 465.616 153.099 465.637 152.532C465.657 151.881 465.671 151.239 465.678 150.588C465.684 150.046 465.691 149.497 465.691 148.956C465.691 147.324 465.657 145.701 465.589 144.069C465.48 141.456 465.283 138.855 464.997 136.265C462.557 114.126 453.782 93.8166 440.275 79.0489C426.768 64.2811 409.431 56.0416 391.435 55.8364C373.438 55.6312 355.983 63.474 342.26 77.9313C328.537 92.3885 319.462 112.495 316.695 134.574C316.627 135.132 316.559 135.699 316.498 136.265C316.273 138.294 316.105 140.332 315.994 142.378C315.96 142.944 315.933 143.502 315.912 144.069C315.309 158.405 317.388 172.72 321.988 185.891C326.587 199.063 333.582 210.732 342.422 219.984C344.07 221.709 345.759 223.332 347.489 224.854C347.496 224.862 347.502 224.862 347.509 224.871C348.088 225.378 348.667 225.877 349.253 226.367C350.185 227.128 351.125 227.872 352.072 228.583C352.147 228.633 352.222 228.692 352.296 228.743C353.114 229.352 353.938 229.935 354.762 230.502H354.768C357.836 232.596 361.019 234.415 364.295 235.947C373.907 240.436 384.157 242.433 394.414 241.814H394.435C406.406 241.095 418.063 236.812 428.422 229.327C429.927 228.244 431.411 227.086 432.862 225.852C433.223 225.547 433.59 225.234 433.944 224.922C434.38 224.541 434.816 224.144 435.252 223.746C435.259 223.746 435.259 223.738 435.266 223.738C435.298 223.704 435.332 223.673 435.368 223.645C435.66 223.366 435.96 223.087 436.246 222.816C436.321 222.749 436.396 222.681 436.471 222.605C436.491 222.588 436.509 222.568 436.525 222.546C436.696 222.394 436.859 222.225 437.029 222.064C437.199 221.903 437.363 221.734 437.533 221.565C437.562 221.542 437.589 221.517 437.615 221.489C437.806 221.294 437.996 221.108 438.187 220.914C438.384 220.72 438.575 220.517 438.759 220.322C438.95 220.128 439.133 219.933 439.324 219.73C439.488 219.561 439.658 219.384 439.821 219.198C439.876 219.147 439.923 219.088 439.978 219.029C439.999 219.004 440.022 218.981 440.046 218.961C440.271 218.724 440.489 218.479 440.707 218.234C440.761 218.175 440.809 218.115 440.863 218.056C441.197 217.684 441.531 217.312 441.857 216.923C441.932 216.839 442.014 216.746 442.089 216.661C442.164 216.577 442.232 216.492 442.307 216.408C442.402 216.289 442.504 216.179 442.6 216.061C442.845 215.773 443.083 215.478 443.328 215.182L444.132 216.027L444.425 216.332H444.431L444.52 216.433L444.84 216.763L449.593 221.751L449.695 221.861L449.777 221.937L450.315 222.503L451.391 223.636L452.467 224.761L452.624 224.922L457.629 230.164L458.323 230.891L463.151 235.947L488.143 262.131L489.014 263.044L523.22 298.875L531.99 308.066L535.252 311.481C535.944 312.209 536.746 312.76 537.609 313.102C538.473 313.445 539.383 313.573 540.287 313.479C541.191 313.385 542.071 313.07 542.877 312.553C543.682 312.036 544.398 311.327 544.983 310.467C545.473 309.753 545.862 308.941 546.134 308.066C546.629 306.514 546.746 304.816 546.471 303.183C546.196 301.549 545.542 300.052 544.588 298.875ZM347.332 102.886C354.164 92.8344 363.146 85.3876 373.242 81.4057C383.338 77.4238 394.135 77.0694 404.387 80.3833C414.638 83.6971 423.925 90.5442 431.175 100.133C438.425 109.722 443.342 121.663 445.358 134.574C445.446 135.141 445.528 135.699 445.603 136.265C445.882 138.286 446.086 140.332 446.209 142.378C446.243 142.944 446.277 143.502 446.297 144.069C446.359 145.337 446.386 146.614 446.386 147.882C446.39 155.575 445.363 163.215 443.349 170.49V170.498C441.097 178.655 437.64 186.219 433.155 192.802C433.059 192.937 432.964 193.081 432.862 193.216C431.963 194.535 431.016 195.804 430.043 197.013C430.036 197.021 430.029 197.038 430.022 197.046C429.688 197.461 429.348 197.883 429.007 198.272C428.313 199.109 427.605 199.904 426.883 200.665C425.8 201.84 424.69 202.942 423.553 203.971C423.172 204.317 422.79 204.656 422.402 204.994C422.021 205.332 421.633 205.653 421.244 205.975C420.468 206.617 419.678 207.234 418.881 207.818C418.486 208.114 418.078 208.401 417.676 208.68C417.274 208.967 416.866 209.238 416.457 209.5C416.049 209.771 415.64 210.033 415.225 210.286C414.401 210.802 413.57 211.284 412.726 211.732C412.303 211.969 411.881 212.189 411.459 212.392C411.193 212.527 410.935 212.662 410.669 212.781C410.565 212.84 410.458 212.891 410.349 212.933C410.206 213.009 410.063 213.077 409.92 213.136C409.873 213.162 409.826 213.185 409.777 213.203C409.484 213.347 409.198 213.474 408.899 213.601C408.469 213.795 408.04 213.973 407.605 214.142C407.169 214.319 406.74 214.488 406.304 214.641C405.868 214.81 405.426 214.962 404.99 215.106C404.547 215.258 404.111 215.402 403.669 215.528C403.199 215.681 402.729 215.816 402.252 215.943C401.837 216.061 401.428 216.163 401.013 216.256C400.625 216.357 400.23 216.442 399.842 216.526C399.297 216.645 398.752 216.754 398.201 216.847C397.901 216.907 397.608 216.957 397.308 216.991C397.179 217.017 397.056 217.033 396.934 217.05C396.553 217.118 396.171 217.169 395.797 217.211C395.695 217.219 395.599 217.236 395.504 217.245C395.089 217.296 394.666 217.338 394.251 217.38C393.359 217.456 392.474 217.507 391.581 217.532C391.132 217.541 390.676 217.549 390.226 217.549C389.777 217.549 389.327 217.541 388.878 217.524C388.878 217.524 388.878 217.532 388.871 217.524C388.864 217.532 388.864 217.532 388.858 217.524C388.857 217.525 388.856 217.526 388.854 217.526C388.853 217.527 388.852 217.527 388.851 217.527C388.849 217.527 388.848 217.527 388.847 217.526C388.846 217.526 388.845 217.525 388.844 217.524C388.822 217.532 388.798 217.532 388.776 217.524C388.456 217.524 388.136 217.507 387.822 217.482C387.591 217.473 387.353 217.465 387.114 217.439C386.794 217.422 386.474 217.397 386.154 217.363C386.052 217.363 385.95 217.346 385.848 217.338C385.8 217.336 385.752 217.331 385.705 217.321C385.378 217.287 385.044 217.253 384.717 217.211C384.554 217.194 384.384 217.177 384.22 217.152C383.723 217.084 383.226 217.008 382.736 216.924C382.177 216.839 381.619 216.738 381.067 216.611C380.809 216.568 380.557 216.509 380.305 216.45C379.971 216.382 379.637 216.306 379.304 216.222C378.956 216.137 378.609 216.053 378.262 215.951C377.982 215.875 377.697 215.799 377.417 215.715C377.281 215.681 377.145 215.638 377.016 215.596C376.301 215.385 375.592 215.157 374.891 214.903C374.448 214.751 374.006 214.59 373.57 214.421C372.97 214.193 372.378 213.948 371.786 213.685C371.554 213.592 371.329 213.491 371.098 213.381C370.866 213.288 370.642 213.178 370.41 213.068C370.199 212.975 369.988 212.874 369.784 212.772C369.443 212.612 369.109 212.443 368.776 212.274C368.088 211.927 367.414 211.563 366.74 211.174C366.358 210.946 365.977 210.726 365.602 210.498C364.125 209.61 362.67 208.624 361.237 207.539C360.883 207.277 360.529 206.998 360.175 206.719C359.732 206.381 359.304 206.025 358.875 205.67C358.636 205.467 358.405 205.273 358.173 205.07C357.744 204.698 357.322 204.318 356.907 203.937C356.689 203.743 356.471 203.54 356.26 203.337C355.504 202.627 354.761 201.883 354.033 201.122C353.686 200.758 353.338 200.386 352.998 200.006C352.855 199.853 352.712 199.693 352.569 199.532C352.405 199.346 352.242 199.169 352.085 198.974L352.072 198.957C351.833 198.695 351.595 198.416 351.363 198.137C351.003 197.714 350.648 197.283 350.308 196.844C349.954 196.412 349.613 195.964 349.28 195.525C348.939 195.085 348.612 194.637 348.292 194.18C347.965 193.732 347.645 193.276 347.332 192.811C347.026 192.371 346.726 191.914 346.44 191.466C345.745 190.401 345.083 189.316 344.452 188.211C344.159 187.704 343.88 187.197 343.607 186.681C343.314 186.157 343.035 185.624 342.77 185.091C342.49 184.559 342.225 184.018 341.966 183.468C341.959 183.449 341.95 183.432 341.939 183.417C341.428 182.344 340.938 181.261 340.481 180.162C340.012 179.046 339.569 177.919 339.154 176.78C338.943 176.214 338.738 175.639 338.548 175.064C338.153 173.906 337.785 172.748 337.444 171.572C337.274 171.006 337.118 170.439 336.961 169.864C336.956 169.826 336.947 169.789 336.934 169.755C336.62 168.588 336.334 167.413 336.082 166.229C336.076 166.212 336.076 166.195 336.069 166.178C335.939 165.595 335.817 165.011 335.708 164.42C335.599 163.904 335.504 163.388 335.415 162.864C335.313 162.28 335.211 161.697 335.122 161.105C335.075 160.801 335.027 160.497 334.986 160.192C334.945 159.939 334.911 159.676 334.877 159.423C334.843 159.169 334.809 158.907 334.775 158.645C334.707 158.129 334.646 157.614 334.591 157.098C334.523 156.489 334.469 155.88 334.414 155.263C334.353 154.528 334.298 153.792 334.251 153.048C334.217 152.549 334.196 152.042 334.176 151.535C334.155 151.07 334.135 150.605 334.128 150.14C334.121 150.115 334.121 150.088 334.128 150.063C334.127 150.062 334.126 150.061 334.126 150.06C334.125 150.058 334.125 150.057 334.125 150.055C334.125 150.053 334.125 150.052 334.126 150.05C334.126 150.049 334.127 150.048 334.128 150.047C334.121 150.038 334.121 150.038 334.128 150.03C334.127 150.029 334.126 150.027 334.126 150.026C334.125 150.024 334.125 150.023 334.125 150.021C334.125 150.02 334.125 150.018 334.126 150.017C334.126 150.015 334.127 150.014 334.128 150.013C334.121 149.827 334.115 149.641 334.115 149.455C334.101 148.905 334.094 148.356 334.094 147.806C334.094 147.307 334.101 146.817 334.108 146.318C334.121 145.625 334.142 144.931 334.169 144.238C334.169 144.086 334.183 143.942 334.19 143.79C334.196 143.638 334.203 143.494 334.21 143.342C334.223 143.021 334.244 142.699 334.271 142.378C334.27 142.319 334.272 142.259 334.278 142.201C334.298 141.837 334.325 141.473 334.353 141.11C334.407 140.383 334.475 139.647 334.55 138.92C334.591 138.557 334.625 138.193 334.673 137.829C334.7 137.576 334.734 137.314 334.768 137.052C334.795 136.79 334.83 136.527 334.87 136.265C334.918 135.919 334.966 135.564 335.02 135.208C335.047 134.997 335.081 134.786 335.115 134.574C335.245 133.729 335.388 132.883 335.544 132.038C335.701 131.184 335.878 130.339 336.069 129.493C336.253 128.639 336.457 127.785 336.675 126.931C336.777 126.5 336.886 126.077 337.009 125.655C337.233 124.801 337.472 123.955 337.737 123.118C337.86 122.704 337.989 122.281 338.132 121.867C338.405 121.03 338.691 120.193 338.983 119.373C339.133 118.958 339.283 118.544 339.446 118.13C339.753 117.31 340.073 116.49 340.42 115.686C340.754 114.866 341.115 114.063 341.483 113.268C341.85 112.474 342.232 111.679 342.633 110.893C342.817 110.504 343.021 110.106 343.233 109.726C343.641 108.948 344.07 108.17 344.506 107.409C345.385 105.87 346.331 104.357 347.332 102.886ZM334.264 142.378C334.244 142.699 334.224 143.021 334.21 143.342C334.224 143.021 334.244 142.699 334.271 142.378C334.27 142.319 334.272 142.259 334.278 142.2C334.271 142.26 334.271 142.319 334.264 142.378ZM335.109 134.574C335.082 134.786 335.048 134.997 335.02 135.208C335.048 134.997 335.082 134.786 335.116 134.574H335.109ZM352.072 198.957V198.966C352.072 198.974 352.079 198.974 352.085 198.974L352.072 198.957Z" fill="#3F3D56"/>
<path opacity="0.3" d="M354.034 201.121C343.263 189.835 336.304 173.934 334.539 156.573C332.774 139.212 336.332 121.662 344.506 107.408C343.433 108.75 342.395 110.156 341.393 111.625C336.638 118.622 333.039 126.713 330.803 135.436C328.566 144.159 327.736 153.344 328.358 162.465C328.981 171.587 331.044 180.467 334.431 188.599C337.817 196.73 342.461 203.954 348.096 209.858C359.476 221.781 374.206 227.602 389.044 226.041C403.881 224.481 417.612 215.666 427.215 201.536C428.215 200.065 429.156 198.558 430.039 197.016C420.097 209.419 406.762 216.726 392.682 217.486C378.601 218.246 364.806 212.405 354.034 201.121Z" fill="black"/>
</g>
<defs>
<clipPath id="clip0">
<rect width="619" height="383" fill="white"/>
</clipPath>
</defs>
</svg>
